<?xml version="1.0" encoding="UTF-8" standalone="no"?>
<!DOCTYPE svg PUBLIC "-//W3C//DTD SVG 1.1//EN"
 "http://www.w3.org/Graphics/SVG/1.1/DTD/svg11.dtd">
<!-- Generated by graphviz version 2.47.0 (20210316.0004)
 -->
<!-- Title: dependencies Pages: 1 -->
<svg width="648pt" height="284pt"
 viewBox="0.00 0.00 648.00 284.00" xmlns="http://www.w3.org/2000/svg" xmlns:xlink="http://www.w3.org/1999/xlink">
<g id="graph0" class="graph" transform="scale(1 1) rotate(0) translate(4 280)">
<title>dependencies</title>
<polygon fill="white" stroke="transparent" points="-4,4 -4,-280 644,-280 644,4 -4,4"/>
<text text-anchor="start" x="299.01" y="-42.4" font-family="Times-12" font-weight="bold" font-size="14.00">Legend</text>
<polygon fill="#ffffb3" stroke="transparent" points="86,-10 86,-30 106,-30 106,-10 86,-10"/>
<text text-anchor="start" x="109.63" y="-15.4" font-family="Times-12" font-size="14.00"> &#160;Declarations</text>
<polygon fill="#8dd3c7" stroke="transparent" points="199,-10 199,-30 219,-30 219,-10 199,-10"/>
<text text-anchor="start" x="222.73" y="-15.4" font-family="Times-12" font-size="14.00"> &#160;Module</text>
<polygon fill="#80b1d3" stroke="transparent" points="285,-10 285,-30 305,-30 305,-10 285,-10"/>
<text text-anchor="start" x="308.78" y="-15.4" font-family="Times-12" font-size="14.00"> &#160;Bootstrap</text>
<polygon fill="#fdb462" stroke="transparent" points="382,-10 382,-30 402,-30 402,-10 382,-10"/>
<text text-anchor="start" x="405.67" y="-15.4" font-family="Times-12" font-size="14.00"> &#160;Providers</text>
<polygon fill="#fb8072" stroke="transparent" points="478,-10 478,-30 498,-30 498,-10 478,-10"/>
<text text-anchor="start" x="501.73" y="-15.4" font-family="Times-12" font-size="14.00"> &#160;Exports</text>
<g id="clust1" class="cluster">
<title>cluster_ViewModule</title>
<polygon fill="none" stroke="black" stroke-dasharray="1,5" points="8,-70 8,-268 632,-268 632,-70 8,-70"/>
</g>
<g id="clust5" class="cluster">
<title>cluster_ViewModule_imports</title>
<polygon fill="none" stroke="black" points="366,-78 366,-130 624,-130 624,-78 366,-78"/>
</g>
<g id="clust2" class="cluster">
<title>cluster_ViewModule_declarations</title>
<polygon fill="none" stroke="black" points="16,-78 16,-130 358,-130 358,-78 16,-78"/>
</g>
<g id="clust6" class="cluster">
<title>cluster_ViewModule_exports</title>
<polygon fill="none" stroke="black" points="260,-208 260,-260 434,-260 434,-208 260,-208"/>
</g>
<!-- CreateGroupComponent -->
<g id="node1" class="node">
<title>CreateGroupComponent</title>
<polygon fill="#ffffb3" stroke="black" points="349.63,-122 196.37,-122 196.37,-86 349.63,-86 349.63,-122"/>
<text text-anchor="middle" x="273" y="-99.8" font-family="Times,serif" font-size="14.00">CreateGroupComponent</text>
</g>
<!-- ViewModule -->
<g id="node3" class="node">
<title>ViewModule</title>
<polygon fill="#8dd3c7" stroke="black" points="391.87,-187 388.87,-191 367.87,-191 364.87,-187 302.13,-187 302.13,-151 391.87,-151 391.87,-187"/>
<text text-anchor="middle" x="347" y="-164.8" font-family="Times,serif" font-size="14.00">ViewModule</text>
</g>
<!-- CreateGroupComponent&#45;&gt;ViewModule -->
<g id="edge1" class="edge">
<title>CreateGroupComponent&#45;&gt;ViewModule</title>
<path fill="none" stroke="black" d="M325.94,-122.11C325.94,-122.11 325.94,-140.99 325.94,-140.99"/>
<polygon fill="black" stroke="black" points="322.44,-140.99 325.94,-150.99 329.44,-140.99 322.44,-140.99"/>
</g>
<!-- ShowGroupsComponent -->
<g id="node2" class="node">
<title>ShowGroupsComponent</title>
<polygon fill="#ffffb3" stroke="black" points="178.43,-122 23.57,-122 23.57,-86 178.43,-86 178.43,-122"/>
<text text-anchor="middle" x="101" y="-99.8" font-family="Times,serif" font-size="14.00">ShowGroupsComponent</text>
</g>
<!-- ShowGroupsComponent&#45;&gt;ViewModule -->
<g id="edge2" class="edge">
<title>ShowGroupsComponent&#45;&gt;ViewModule</title>
<path fill="none" stroke="black" d="M101,-122.11C101,-141.34 101,-169 101,-169 101,-169 291.88,-169 291.88,-169"/>
<polygon fill="black" stroke="black" points="291.88,-172.5 301.88,-169 291.88,-165.5 291.88,-172.5"/>
</g>
<!-- ShowGroupsComponent  -->
<g id="node6" class="node">
<title>ShowGroupsComponent </title>
<polygon fill="#fb8072" stroke="black" points="425.93,-252 268.07,-252 268.07,-216 425.93,-216 425.93,-252"/>
<text text-anchor="middle" x="347" y="-229.8" font-family="Times,serif" font-size="14.00">ShowGroupsComponent </text>
</g>
<!-- ViewModule&#45;&gt;ShowGroupsComponent  -->
<g id="edge5" class="edge">
<title>ViewModule&#45;&gt;ShowGroupsComponent </title>
<path fill="none" stroke="black" stroke-dasharray="5,2" d="M347,-187.11C347,-187.11 347,-205.99 347,-205.99"/>
<polygon fill="black" stroke="black" points="343.5,-205.99 347,-215.99 350.5,-205.99 343.5,-205.99"/>
</g>
<!-- AppRoutingModule -->
<g id="node4" class="node">
<title>AppRoutingModule</title>
<polygon fill="#8dd3c7" stroke="black" points="616.27,-122 613.27,-126 592.27,-126 589.27,-122 487.73,-122 487.73,-86 616.27,-86 616.27,-122"/>
<text text-anchor="middle" x="552" y="-99.8" font-family="Times,serif" font-size="14.00">AppRoutingModule</text>
</g>
<!-- AppRoutingModule&#45;&gt;ViewModule -->
<g id="edge3" class="edge">
<title>AppRoutingModule&#45;&gt;ViewModule</title>
<path fill="none" stroke="black" d="M552,-122.11C552,-141.34 552,-169 552,-169 552,-169 401.99,-169 401.99,-169"/>
<polygon fill="black" stroke="black" points="401.99,-165.5 391.99,-169 401.99,-172.5 401.99,-165.5"/>
</g>
<!-- ModelModule -->
<g id="node5" class="node">
<title>ModelModule</title>
<polygon fill="#8dd3c7" stroke="black" points="470.1,-122 467.1,-126 446.1,-126 443.1,-122 373.9,-122 373.9,-86 470.1,-86 470.1,-122"/>
<text text-anchor="middle" x="422" y="-99.8" font-family="Times,serif" font-size="14.00">ModelModule</text>
</g>
<!-- ModelModule&#45;&gt;ViewModule -->
<g id="edge4" class="edge">
<title>ModelModule&#45;&gt;ViewModule</title>
<path fill="none" stroke="black" d="M382.94,-122.11C382.94,-122.11 382.94,-140.99 382.94,-140.99"/>
<polygon fill="black" stroke="black" points="379.44,-140.99 382.94,-150.99 386.44,-140.99 379.44,-140.99"/>
</g>
</g>
</svg>
