<?xml version="1.0" encoding="UTF-8" standalone="no"?>
<!DOCTYPE svg PUBLIC "-//W3C//DTD SVG 1.1//EN"
 "http://www.w3.org/Graphics/SVG/1.1/DTD/svg11.dtd">
<!-- Generated by graphviz version 2.47.0 (20210316.0004)
 -->
<!-- Title: dependencies Pages: 1 -->
<svg width="733pt" height="211pt"
 viewBox="0.00 0.00 733.00 211.00" xmlns="http://www.w3.org/2000/svg" xmlns:xlink="http://www.w3.org/1999/xlink">
<g id="graph0" class="graph" transform="scale(1 1) rotate(0) translate(4 207)">
<title>dependencies</title>
<polygon fill="white" stroke="transparent" points="-4,4 -4,-207 729,-207 729,4 -4,4"/>
<text text-anchor="start" x="341.51" y="-42.4" font-family="Times-12" font-weight="bold" font-size="14.00">Legend</text>
<polygon fill="#ffffb3" stroke="transparent" points="128.5,-10 128.5,-30 148.5,-30 148.5,-10 128.5,-10"/>
<text text-anchor="start" x="152.13" y="-15.4" font-family="Times-12" font-size="14.00"> &#160;Declarations</text>
<polygon fill="#8dd3c7" stroke="transparent" points="241.5,-10 241.5,-30 261.5,-30 261.5,-10 241.5,-10"/>
<text text-anchor="start" x="265.23" y="-15.4" font-family="Times-12" font-size="14.00"> &#160;Module</text>
<polygon fill="#80b1d3" stroke="transparent" points="327.5,-10 327.5,-30 347.5,-30 347.5,-10 327.5,-10"/>
<text text-anchor="start" x="351.28" y="-15.4" font-family="Times-12" font-size="14.00"> &#160;Bootstrap</text>
<polygon fill="#fdb462" stroke="transparent" points="424.5,-10 424.5,-30 444.5,-30 444.5,-10 424.5,-10"/>
<text text-anchor="start" x="448.17" y="-15.4" font-family="Times-12" font-size="14.00"> &#160;Providers</text>
<polygon fill="#fb8072" stroke="transparent" points="520.5,-10 520.5,-30 540.5,-30 540.5,-10 520.5,-10"/>
<text text-anchor="start" x="544.23" y="-15.4" font-family="Times-12" font-size="14.00"> &#160;Exports</text>
<g id="clust1" class="cluster">
<title>cluster_GroupDetailModule</title>
<polygon fill="none" stroke="black" stroke-dasharray="1,5" points="8,-70 8,-195 717,-195 717,-70 8,-70"/>
</g>
<g id="clust2" class="cluster">
<title>cluster_GroupDetailModule_declarations</title>
<polygon fill="none" stroke="black" points="16,-78 16,-130 709,-130 709,-78 16,-78"/>
</g>
<!-- AddExpenseComponent -->
<g id="node1" class="node">
<title>AddExpenseComponent</title>
<polygon fill="#ffffb3" stroke="black" points="701.37,-122 548.63,-122 548.63,-86 701.37,-86 701.37,-122"/>
<text text-anchor="middle" x="625" y="-99.8" font-family="Times,serif" font-size="14.00">AddExpenseComponent</text>
</g>
<!-- GroupDetailModule -->
<g id="node5" class="node">
<title>GroupDetailModule</title>
<polygon fill="#8dd3c7" stroke="black" points="449.53,-187 446.53,-191 425.53,-191 422.53,-187 320.47,-187 320.47,-151 449.53,-151 449.53,-187"/>
<text text-anchor="middle" x="385" y="-164.8" font-family="Times,serif" font-size="14.00">GroupDetailModule</text>
</g>
<!-- AddExpenseComponent&#45;&gt;GroupDetailModule -->
<g id="edge1" class="edge">
<title>AddExpenseComponent&#45;&gt;GroupDetailModule</title>
<path fill="none" stroke="black" d="M625,-122.11C625,-141.34 625,-169 625,-169 625,-169 459.63,-169 459.63,-169"/>
<polygon fill="black" stroke="black" points="459.63,-165.5 449.63,-169 459.63,-172.5 459.63,-165.5"/>
</g>
<!-- AddUserComponent -->
<g id="node2" class="node">
<title>AddUserComponent</title>
<polygon fill="#ffffb3" stroke="black" points="530.87,-122 399.13,-122 399.13,-86 530.87,-86 530.87,-122"/>
<text text-anchor="middle" x="465" y="-99.8" font-family="Times,serif" font-size="14.00">AddUserComponent</text>
</g>
<!-- AddUserComponent&#45;&gt;GroupDetailModule -->
<g id="edge2" class="edge">
<title>AddUserComponent&#45;&gt;GroupDetailModule</title>
<path fill="none" stroke="black" d="M424.41,-122.11C424.41,-122.11 424.41,-140.99 424.41,-140.99"/>
<polygon fill="black" stroke="black" points="420.91,-140.99 424.41,-150.99 427.91,-140.99 420.91,-140.99"/>
</g>
<!-- GroupDetailComponent -->
<g id="node3" class="node">
<title>GroupDetailComponent</title>
<polygon fill="#ffffb3" stroke="black" points="380.81,-122 229.19,-122 229.19,-86 380.81,-86 380.81,-122"/>
<text text-anchor="middle" x="305" y="-99.8" font-family="Times,serif" font-size="14.00">GroupDetailComponent</text>
</g>
<!-- GroupDetailComponent&#45;&gt;GroupDetailModule -->
<g id="edge3" class="edge">
<title>GroupDetailComponent&#45;&gt;GroupDetailModule</title>
<path fill="none" stroke="black" d="M350.45,-122.11C350.45,-122.11 350.45,-140.99 350.45,-140.99"/>
<polygon fill="black" stroke="black" points="346.95,-140.99 350.45,-150.99 353.95,-140.99 346.95,-140.99"/>
</g>
<!-- ParentGroupDetailComponent -->
<g id="node4" class="node">
<title>ParentGroupDetailComponent</title>
<polygon fill="#ffffb3" stroke="black" points="211.57,-122 24.43,-122 24.43,-86 211.57,-86 211.57,-122"/>
<text text-anchor="middle" x="118" y="-99.8" font-family="Times,serif" font-size="14.00">ParentGroupDetailComponent</text>
</g>
<!-- ParentGroupDetailComponent&#45;&gt;GroupDetailModule -->
<g id="edge4" class="edge">
<title>ParentGroupDetailComponent&#45;&gt;GroupDetailModule</title>
<path fill="none" stroke="black" d="M118,-122.11C118,-141.34 118,-169 118,-169 118,-169 310.37,-169 310.37,-169"/>
<polygon fill="black" stroke="black" points="310.37,-172.5 320.37,-169 310.37,-165.5 310.37,-172.5"/>
</g>
</g>
</svg>
