<?xml version="1.0" encoding="UTF-8" standalone="no"?>
<!DOCTYPE svg PUBLIC "-//W3C//DTD SVG 1.1//EN"
 "http://www.w3.org/Graphics/SVG/1.1/DTD/svg11.dtd">
<!-- Generated by graphviz version 2.47.0 (20210316.0004)
 -->
<!-- Title: dependencies Pages: 1 -->
<svg width="952pt" height="284pt"
 viewBox="0.00 0.00 952.00 284.00" xmlns="http://www.w3.org/2000/svg" xmlns:xlink="http://www.w3.org/1999/xlink">
<g id="graph0" class="graph" transform="scale(1 1) rotate(0) translate(4 280)">
<title>dependencies</title>
<polygon fill="white" stroke="transparent" points="-4,4 -4,-280 948,-280 948,4 -4,4"/>
<text text-anchor="start" x="451.01" y="-42.4" font-family="Times-12" font-weight="bold" font-size="14.00">Legend</text>
<polygon fill="#ffffb3" stroke="transparent" points="238,-10 238,-30 258,-30 258,-10 238,-10"/>
<text text-anchor="start" x="261.63" y="-15.4" font-family="Times-12" font-size="14.00"> &#160;Declarations</text>
<polygon fill="#8dd3c7" stroke="transparent" points="351,-10 351,-30 371,-30 371,-10 351,-10"/>
<text text-anchor="start" x="374.73" y="-15.4" font-family="Times-12" font-size="14.00"> &#160;Module</text>
<polygon fill="#80b1d3" stroke="transparent" points="437,-10 437,-30 457,-30 457,-10 437,-10"/>
<text text-anchor="start" x="460.78" y="-15.4" font-family="Times-12" font-size="14.00"> &#160;Bootstrap</text>
<polygon fill="#fdb462" stroke="transparent" points="534,-10 534,-30 554,-30 554,-10 534,-10"/>
<text text-anchor="start" x="557.67" y="-15.4" font-family="Times-12" font-size="14.00"> &#160;Providers</text>
<polygon fill="#fb8072" stroke="transparent" points="630,-10 630,-30 650,-30 650,-10 630,-10"/>
<text text-anchor="start" x="653.73" y="-15.4" font-family="Times-12" font-size="14.00"> &#160;Exports</text>
<g id="clust1" class="cluster">
<title>cluster_AdminModule</title>
<polygon fill="none" stroke="black" stroke-dasharray="1,5" points="8,-70 8,-268 936,-268 936,-70 8,-70"/>
</g>
<g id="clust8" class="cluster">
<title>cluster_AdminModule_providers</title>
<polygon fill="none" stroke="black" points="329,-78 329,-130 928,-130 928,-78 329,-78"/>
</g>
<g id="clust2" class="cluster">
<title>cluster_AdminModule_declarations</title>
<polygon fill="none" stroke="black" points="16,-78 16,-130 321,-130 321,-78 16,-78"/>
</g>
<g id="clust6" class="cluster">
<title>cluster_AdminModule_exports</title>
<polygon fill="none" stroke="black" points="430,-208 430,-260 558,-260 558,-208 430,-208"/>
</g>
<!-- AdminGroupsComponent -->
<g id="node1" class="node">
<title>AdminGroupsComponent</title>
<polygon fill="#ffffb3" stroke="black" points="312.93,-122 151.07,-122 151.07,-86 312.93,-86 312.93,-122"/>
<text text-anchor="middle" x="232" y="-99.8" font-family="Times,serif" font-size="14.00">AdminGroupsComponent</text>
</g>
<!-- AdminModule -->
<g id="node3" class="node">
<title>AdminModule</title>
<polygon fill="#8dd3c7" stroke="black" points="543.44,-187 540.44,-191 519.44,-191 516.44,-187 444.56,-187 444.56,-151 543.44,-151 543.44,-187"/>
<text text-anchor="middle" x="494" y="-164.8" font-family="Times,serif" font-size="14.00">AdminModule</text>
</g>
<!-- AdminGroupsComponent&#45;&gt;AdminModule -->
<g id="edge1" class="edge">
<title>AdminGroupsComponent&#45;&gt;AdminModule</title>
<path fill="none" stroke="black" d="M232,-122.02C232,-139.37 232,-163 232,-163 232,-163 434.72,-163 434.72,-163"/>
<polygon fill="black" stroke="black" points="434.72,-166.5 444.72,-163 434.72,-159.5 434.72,-166.5"/>
</g>
<!-- AuthComponent -->
<g id="node2" class="node">
<title>AuthComponent</title>
<polygon fill="#ffffb3" stroke="black" points="133.83,-122 24.17,-122 24.17,-86 133.83,-86 133.83,-122"/>
<text text-anchor="middle" x="79" y="-99.8" font-family="Times,serif" font-size="14.00">AuthComponent</text>
</g>
<!-- AuthComponent&#45;&gt;AdminModule -->
<g id="edge2" class="edge">
<title>AuthComponent&#45;&gt;AdminModule</title>
<path fill="none" stroke="black" d="M79,-122.28C79,-143.32 79,-175 79,-175 79,-175 434.76,-175 434.76,-175"/>
<polygon fill="black" stroke="black" points="434.76,-178.5 444.76,-175 434.76,-171.5 434.76,-178.5"/>
</g>
<!-- AuthComponent  -->
<g id="node4" class="node">
<title>AuthComponent </title>
<polygon fill="#fb8072" stroke="black" points="550.33,-252 437.67,-252 437.67,-216 550.33,-216 550.33,-252"/>
<text text-anchor="middle" x="494" y="-229.8" font-family="Times,serif" font-size="14.00">AuthComponent </text>
</g>
<!-- AdminModule&#45;&gt;AuthComponent  -->
<g id="edge3" class="edge">
<title>AdminModule&#45;&gt;AuthComponent </title>
<path fill="none" stroke="black" stroke-dasharray="5,2" d="M494,-187.11C494,-187.11 494,-205.99 494,-205.99"/>
<polygon fill="black" stroke="black" points="490.5,-205.99 494,-215.99 497.5,-205.99 490.5,-205.99"/>
</g>
<!-- AuthGuard -->
<g id="node5" class="node">
<title>AuthGuard</title>
<ellipse fill="#fdb462" stroke="black" cx="866" cy="-104" rx="54.46" ry="18"/>
<text text-anchor="middle" x="866" y="-99.8" font-family="Times,serif" font-size="14.00">AuthGuard</text>
</g>
<!-- AuthGuard&#45;&gt;AdminModule -->
<g id="edge4" class="edge">
<title>AuthGuard&#45;&gt;AdminModule</title>
<path fill="none" stroke="black" d="M866,-122.28C866,-143.32 866,-175 866,-175 866,-175 553.4,-175 553.4,-175"/>
<polygon fill="black" stroke="black" points="553.4,-171.5 543.4,-175 553.4,-178.5 553.4,-171.5"/>
</g>
<!-- AuthService -->
<g id="node6" class="node">
<title>AuthService</title>
<ellipse fill="#fdb462" stroke="black" cx="734" cy="-104" rx="59.11" ry="18"/>
<text text-anchor="middle" x="734" y="-99.8" font-family="Times,serif" font-size="14.00">AuthService</text>
</g>
<!-- AuthService&#45;&gt;AdminModule -->
<g id="edge5" class="edge">
<title>AuthService&#45;&gt;AdminModule</title>
<path fill="none" stroke="black" d="M734,-122.02C734,-139.37 734,-163 734,-163 734,-163 553.44,-163 553.44,-163"/>
<polygon fill="black" stroke="black" points="553.44,-159.5 543.44,-163 553.44,-166.5 553.44,-159.5"/>
</g>
<!-- GroupRepositroy -->
<g id="node7" class="node">
<title>GroupRepositroy</title>
<ellipse fill="#fdb462" stroke="black" cx="579" cy="-104" rx="78.17" ry="18"/>
<text text-anchor="middle" x="579" y="-99.8" font-family="Times,serif" font-size="14.00">GroupRepositroy</text>
</g>
<!-- GroupRepositroy&#45;&gt;AdminModule -->
<g id="edge6" class="edge">
<title>GroupRepositroy&#45;&gt;AdminModule</title>
<path fill="none" stroke="black" d="M522.07,-116.53C522.07,-116.53 522.07,-140.85 522.07,-140.85"/>
<polygon fill="black" stroke="black" points="518.57,-140.85 522.07,-150.85 525.57,-140.85 518.57,-140.85"/>
</g>
<!-- RestDataSource -->
<g id="node8" class="node">
<title>RestDataSource</title>
<ellipse fill="#fdb462" stroke="black" cx="410" cy="-104" rx="73.49" ry="18"/>
<text text-anchor="middle" x="410" y="-99.8" font-family="Times,serif" font-size="14.00">RestDataSource</text>
</g>
<!-- RestDataSource&#45;&gt;AdminModule -->
<g id="edge7" class="edge">
<title>RestDataSource&#45;&gt;AdminModule</title>
<path fill="none" stroke="black" d="M464.01,-116.23C464.01,-116.23 464.01,-140.68 464.01,-140.68"/>
<polygon fill="black" stroke="black" points="460.51,-140.68 464.01,-150.68 467.51,-140.68 460.51,-140.68"/>
</g>
</g>
</svg>
